<svg width="320" height="320" fill="none" xmlns="http://www.w3.org/2000/svg"><path fill="#fff" d="M0 0h320v320H0z"/><g clip-path="url(#clip0)" fill-rule="evenodd" clip-rule="evenodd"><path d="M212 197.5c-16.872 3.674-33.52 5.333-51.5 5.333-17.617 0-34.443-1.802-51-5.333l46.727-69.269c2.328-3.421 7.393-3.421 9.72 0L212 197.5z" fill="#6B7280"/><path d="M211.911 197.432c-16.574 3.539-33.774 5.402-51.412 5.402-17.528 0-34.624-1.84-51.104-5.337A493.676 493.676 0 0066 117h9.112l136.799 80.432z" fill="#374151"/><path d="M211.605 197.497c-16.48 3.497-33.577 5.337-51.106 5.337-17.522 0-34.613-1.839-51.087-5.333L247.031 117H255a493.7 493.7 0 00-43.395 80.497z" fill="#111827"/></g><defs><clipPath id="clip0"><path fill="#fff" transform="translate(66 117)" d="M0 0h189v86H0z"/></clipPath></defs></svg>