<svg width="100" height="46" viewBox="0 0 100 46" fill="none" xmlns="http://www.w3.org/2000/svg">
<path fill-rule="evenodd" clip-rule="evenodd" d="M77.7133 42.6592C68.7864 44.6132 59.5136 45.6429 50.0003 45.6429C40.6793 45.6429 31.5892 44.6544 22.8291 42.7766L47.7395 5.97254C48.971 4.15303 51.6509 4.15303 52.8824 5.97254L77.7133 42.6592Z" fill="#6B7280"/>
<path fill-rule="evenodd" clip-rule="evenodd" d="M77.202 42.7706C68.4323 44.6527 59.3317 45.6435 49.9997 45.6435C40.7256 45.6435 31.68 44.665 22.9605 42.8055C16.6103 27.7743 8.90581 13.4548 0 0H4.82092L77.202 42.7706Z" fill="#374151"/>
<path fill-rule="evenodd" clip-rule="evenodd" d="M77.0398 42.8053C68.3202 44.6649 59.2743 45.6435 49.9999 45.6435C40.7288 45.6435 31.686 44.6656 22.9692 42.8073L95.784 0H100C91.0946 13.4548 83.3901 27.7742 77.0398 42.8053Z" fill="#111827"/>
</svg>
